<?xml version="1.0" standalone="no"?>
<!DOCTYPE svg PUBLIC "-//W3C//DTD SVG 20010904//EN"
 "http://www.w3.org/TR/2001/REC-SVG-20010904/DTD/svg10.dtd">
<svg version="1.0" xmlns="http://www.w3.org/2000/svg"
 width="366.000000pt" height="366.000000pt" viewBox="0 0 366.000000 366.000000"
 preserveAspectRatio="xMidYMid meet">
<metadata>
Created by potrace 1.11, written by Peter Selinger 2001-2013
</metadata>
<g transform="translate(0.000000,366.000000) scale(0.100000,-0.100000)"
fill="#000000" stroke="none">
<path d="M1795 3549 c-22 -11 -303 -178 -625 -372 l-585 -352 -3 -88 c-3 -100
4 -117 52 -117 l31 0 1 -80 c0 -47 5 -85 12 -92 6 -6 35 -12 64 -12 l51 -1 4
-40 c1 -22 12 -52 23 -67 16 -22 20 -42 19 -103 -1 -48 -5 -75 -13 -76 -20 -2
-81 -7 -98 -8 -17 -1 -18 -18 -18 -201 0 -193 1 -200 20 -201 18 -1 50 -4 95
-8 11 -1 14 -20 12 -103 l-2 -101 -73 -2 c-40 -1 -78 -7 -84 -13 -7 -7 -12
-46 -12 -89 -1 -76 -1 -77 -28 -78 -52 -3 -58 -18 -58 -135 0 -85 3 -110 16
-120 22 -19 2449 -19 2467 -1 16 16 18 215 2 238 -7 9 -25 16 -44 15 l-31 -1
0 77 c0 42 -4 84 -10 92 -6 10 -29 14 -79 15 -38 0 -73 3 -76 7 -6 6 -9 132
-6 222 1 19 2 19 14 2 10 -13 24 -17 57 -14 l44 3 1 185 c0 102 -1 192 -3 201
-2 11 -14 15 -40 14 l-37 -1 0 -140 0 -140 -18 40 c-16 35 -19 68 -19 223 0
170 1 184 21 209 13 16 21 41 21 63 l0 36 49 1 c73 1 81 12 81 105 l0 79 35 0
c22 0 37 6 43 18 10 17 11 177 2 186 -3 2 -273 165 -600 362 -327 196 -604
363 -615 370 -18 12 -26 11 -60 -7z m620 -429 c314 -188 571 -343 573 -345 6
-6 11 -47 6 -58 -3 -10 -256 -13 -1170 -13 l-1165 0 3 35 c3 35 4 35 583 383
319 191 585 346 590 344 6 -2 267 -158 580 -346z m495 -550 l0 -49 -1080 0
-1080 1 0 48 0 48 1080 0 1080 0 0 -48z m-1856 -154 c3 -11 4 -22 1 -24 -2 -2
-40 -4 -85 -5 -66 -2 -84 1 -91 14 -14 27 7 35 90 35 71 0 80 -3 85 -20z m174
-22 c2 -21 12 -51 23 -66 15 -21 19 -44 19 -101 l0 -74 -48 -7 c-35 -4 -60
-16 -89 -41 l-40 -34 -1 111 c-1 99 1 115 22 152 14 24 23 54 22 72 -3 31 -2
31 43 29 45 -1 45 -1 49 -41z m252 37 c8 -2 10 -41 2 -42 -4 0 -44 -2 -90 -2
-82 -2 -82 -2 -82 23 0 26 0 26 83 24 45 -1 84 -2 87 -3z m180 -39 c3 -23 13
-51 23 -62 13 -16 17 -39 17 -103 l0 -82 -87 0 -88 1 -1 79 c-1 67 3 84 19
103 11 12 22 37 23 55 1 17 3 37 3 43 1 7 18 11 44 10 42 -2 42 -3 47 -44z
m258 20 c4 -24 2 -24 -108 -24 -71 0 -70 0 -70 25 0 22 3 23 88 23 82 -1 87
-2 90 -24z m172 -10 c0 -32 15 -71 31 -82 7 -5 12 -84 10 -151 -1 -25 -1 -25
-83 -23 -46 1 -86 2 -89 3 -3 0 -5 37 -4 81 1 60 6 84 19 99 18 20 24 39 25
82 1 23 5 25 46 25 44 0 45 0 45 -34z m253 29 c12 -2 8 -39 -5 -43 -7 -2 -47
-3 -88 -3 -72 1 -75 2 -78 26 l-3 25 83 -2 c46 -1 86 -2 91 -3z m177 -31 c0
-22 9 -48 23 -67 l22 -30 -1 -384 c-1 -211 -2 -386 -3 -389 0 -3 -39 -5 -86
-5 -70 -1 -85 2 -86 15 -5 69 -1 195 7 197 52 18 92 53 117 103 25 48 28 63
24 116 -3 38 -13 77 -26 101 -23 41 -76 83 -104 83 -9 0 -17 7 -17 15 0 8 8
15 19 15 29 0 43 23 31 54 -6 18 -17 26 -33 26 -19 0 -23 5 -21 30 1 16 11 41
23 56 13 16 21 41 21 63 l0 37 45 0 45 0 0 -36z m260 14 c0 -27 -9 -30 -85
-28 -95 3 -95 3 -95 22 0 10 2 21 4 23 3 3 43 5 90 5 82 0 86 -1 86 -22z
m-1770 -321 c0 -199 -1 -206 -17 -183 -10 14 -27 33 -38 42 -12 10 -15 17 -7
18 20 0 51 60 45 89 -5 30 -40 71 -60 71 -10 0 -13 21 -13 85 l0 85 45 0 45 0
0 -207z m431 190 c0 -10 1 -71 2 -135 2 -111 -4 -143 -18 -99 -3 10 -21 34
-40 52 -19 19 -35 40 -35 48 0 8 3 11 7 8 3 -4 17 5 30 19 22 24 23 28 10 48
-8 11 -21 21 -28 21 -8 0 -15 12 -17 28 -3 26 -2 27 42 27 37 0 46 -3 47 -17z
m432 -53 c-1 -91 -1 -89 -23 -85 -17 3 -20 -2 -20 -36 0 -32 3 -39 20 -39 11
0 20 -3 21 -7 4 -33 3 -526 -1 -532 -3 -3 -23 -6 -45 -6 l-40 0 -1 108 c-1 84
2 107 12 107 17 0 17 0 0 69 -10 35 -13 80 -10 121 6 72 6 95 1 258 l-4 113
45 -3 45 -3 0 -65z m433 46 c1 -19 -4 -25 -26 -29 -15 -4 -30 -13 -34 -22 -9
-25 12 -55 39 -55 35 0 22 -21 -29 -45 l-42 -20 1 90 c1 49 3 93 3 98 1 4 21
7 45 7 37 0 42 -3 43 -24z m429 -79 c0 -94 0 -97 -17 -75 -9 13 -26 24 -37 24
-12 1 -24 2 -29 3 -4 0 -7 35 -7 76 l0 76 45 -3 45 -3 0 -98z m-1895 -161 c0
-28 -5 -46 -14 -49 -21 -8 -26 2 -26 50 0 36 3 43 20 43 17 0 20 -7 20 -44z
m430 -93 c0 -132 0 -133 -23 -133 -88 0 -123 175 -48 242 16 15 39 26 51 25
19 -1 20 -7 20 -134z m411 127 c23 -13 26 -72 4 -90 -8 -7 -29 -13 -47 -14
l-33 -1 -3 58 -3 57 31 0 c17 0 40 -5 51 -10z m449 -57 c1 -309 0 -475 -4
-481 -2 -4 -42 -7 -88 -7 l-83 1 0 104 0 105 37 3 37 3 0 112 c0 62 0 136 0
165 l1 52 50 0 50 0 0 -57z m175 -73 c0 -66 -3 -120 -6 -120 -29 0 -59 98 -47
158 7 41 31 82 47 82 3 0 6 -54 6 -120z m131 60 c13 -59 -2 -146 -30 -169 -18
-15 -22 4 -20 109 3 138 1 128 24 104 11 -11 23 -31 26 -44z m298 -270 l1
-205 -32 1 c-18 1 -39 2 -46 3 -9 1 -12 28 -12 102 0 94 2 102 21 109 20 8 20
15 19 151 l-2 143 25 -49 c25 -49 26 -55 26 -255z m-1895 132 c0 -50 -3 -58
-20 -59 -17 -2 -19 5 -19 58 0 51 2 59 19 59 17 0 19 -8 20 -58z m837 17 c17
-19 19 -41 22 -188 l4 -166 -89 0 -89 0 0 107 1 108 37 0 38 0 0 80 0 80 28 0
c17 0 37 -9 48 -21z m-234 -176 c0 -76 -1 -147 -1 -158 -1 -17 -8 -20 -43 -20
l-43 0 -3 117 c-3 116 -2 117 23 134 14 9 33 30 41 46 9 17 18 27 21 24 3 -3
5 -67 5 -143z m-432 -26 l0 -153 -45 0 -45 1 0 110 1 110 32 20 c18 11 36 30
42 43 5 12 11 22 12 22 2 0 3 -69 3 -153z m190 65 c19 -5 43 -8 53 -6 16 2 17
-7 15 -104 l-3 -107 -85 0 -85 0 -2 143 -2 142 37 -29 c20 -16 53 -34 72 -39z
m1106 -106 c0 -59 -4 -100 -10 -105 -6 -4 -27 -7 -46 -7 l-35 2 -1 125 0 124
45 -22 46 -21 1 -96z m602 -243 l-3 -48 -1077 0 -1078 -1 0 48 0 48 1081 0
1080 0 -3 -47z m84 -146 c2 -7 4 -28 4 -47 l-1 -35 -1167 -1 -1168 -1 0 47 0
48 1164 0 c871 0 1166 -3 1168 -11z"/>
<path d="M1166 2234 c-19 -19 -20 -25 -3 -49 20 -26 67 -13 67 18 0 43 -35 60
-64 31z"/>
<path d="M616 879 c-13 -22 -22 -39 -18 -40 57 -8 68 -5 110 36 l44 41 -55 1
c-53 0 -56 -1 -81 -38z"/>
<path d="M1814 911 c-9 -6 -54 -68 -54 -74 0 -1 18 -3 40 -2 33 1 48 8 81 41
l41 41 -50 0 c-27 1 -53 -2 -58 -6z"/>
<path d="M2459 882 c-13 -20 -22 -38 -19 -41 3 -2 19 -6 37 -7 25 -1 39 6 73
42 l42 44 -54 -1 c-50 -1 -56 -4 -79 -37z"/>
<path d="M3112 884 c-31 -47 -31 -47 10 -49 32 -1 44 5 78 40 l41 42 -53 0
c-50 1 -55 -1 -76 -33z"/>
<path d="M59 812 c-14 -3 -16 -29 -16 -228 l0 -225 51 3 51 3 0 70 c0 64 16
115 36 115 4 0 31 -43 60 -95 l52 -95 59 0 c69 0 72 -15 -29 150 -71 115 -71
112 -12 181 35 41 92 119 87 120 -18 5 -93 3 -107 -3 -11 -4 -47 -48 -81 -97
-33 -50 -62 -91 -64 -91 -1 0 -2 43 -1 95 1 80 -1 95 -14 96 -9 0 -25 2 -36 3
-11 1 -27 0 -36 -2z"/>
<path d="M570 805 c-4 -5 -35 -100 -68 -210 -34 -110 -64 -208 -68 -218 -5
-15 1 -17 49 -17 l55 0 14 58 14 57 64 0 65 0 20 -57 20 -58 53 0 c46 0 53 2
48 18 -43 148 -130 419 -137 426 -12 13 -119 14 -129 1z m84 -152 c9 -38 19
-76 22 -86 5 -16 0 -18 -40 -16 -25 2 -46 8 -46 14 0 6 8 41 19 77 10 37 16
70 13 73 -3 3 -1 5 5 5 6 0 18 -30 27 -67z"/>
<path d="M1008 814 c-2 -1 -26 -4 -55 -5 l-51 -2 1 -224 0 -224 51 3 51 3 0
85 c0 93 -4 87 63 81 13 -1 41 -57 48 -98 12 -64 21 -73 74 -73 54 0 55 2 40
46 -5 16 -14 48 -20 71 -6 23 -22 55 -36 72 -22 27 -23 30 -7 35 30 11 56 56
57 100 1 51 -24 93 -67 111 -29 12 -142 27 -149 19z m79 -80 c20 -6 33 -25 39
-63 5 -26 -43 -61 -84 -61 l-38 0 2 63 c1 34 2 63 3 65 2 4 56 2 78 -4z"/>
<path d="M1286 812 c-13 -3 -16 -12 -14 -45 l3 -41 58 3 c49 2 57 0 58 -16 0
-10 0 -94 0 -186 l0 -168 52 3 52 3 0 180 c0 153 2 180 15 181 8 1 36 2 61 3
l46 1 1 40 c2 40 2 40 -36 41 -158 3 -281 3 -296 1z"/>
<path d="M1669 805 c-1 -5 -2 -108 -3 -227 l-1 -218 142 0 143 0 0 43 0 43
-90 -1 -90 -1 0 53 0 53 80 0 80 0 0 43 0 44 -80 -2 c-87 -2 -89 -1 -82 63 3
23 9 32 21 31 9 -1 48 -1 86 0 l70 1 0 40 c0 36 -3 40 -25 41 -202 4 -250 3
-251 -6z"/>
<path d="M2070 810 l-45 -5 -1 -222 -1 -223 51 0 52 0 -1 88 c0 86 0 87 25 88
49 3 72 -23 85 -96 13 -71 21 -80 75 -80 54 0 55 2 40 46 -5 16 -14 48 -20 71
-6 23 -22 55 -36 72 -22 27 -23 30 -7 35 30 11 56 56 57 100 1 52 -24 93 -70
112 -37 16 -135 23 -204 14z m137 -76 c20 -6 33 -25 39 -63 5 -26 -43 -61 -83
-61 l-39 0 2 63 c1 34 2 63 3 65 2 4 56 2 78 -4z"/>
<path d="M2450 812 l-25 -3 0 -224 0 -225 51 0 52 0 0 224 0 224 -26 3 c-15 2
-38 3 -52 1z"/>
<path d="M2608 812 c-25 -3 -28 -7 -26 -43 1 -42 5 -44 86 -39 37 2 34 23 34
-218 l0 -153 52 3 51 3 0 180 0 180 60 0 60 1 3 42 c2 23 0 42 -5 43 -31 2
-293 3 -315 1z"/>
<path d="M3003 810 c-17 -5 -18 -21 -18 -227 l0 -223 143 0 c140 0 142 0 143
23 2 33 -2 51 -12 57 -5 3 -43 5 -86 5 -43 -1 -80 2 -83 6 -3 4 -4 28 -2 53
l4 46 79 0 79 0 0 43 0 44 -80 -2 c-87 -2 -89 -1 -82 62 l4 31 80 0 c43 0 82
2 85 5 7 7 10 77 3 78 -34 3 -243 3 -257 -1z"/>
<path d="M3405 802 c-66 -31 -96 -98 -73 -160 12 -35 34 -53 112 -92 76 -37
93 -64 62 -96 -19 -18 -83 -20 -135 -5 -19 6 -36 10 -37 8 -1 -1 -5 -18 -9
-39 -9 -47 10 -58 104 -63 95 -4 153 21 181 81 16 32 20 52 15 76 -13 55 -37
80 -112 114 -80 37 -99 59 -77 88 15 21 54 25 115 13 34 -7 36 -6 46 28 15 46
0 57 -85 62 -51 3 -76 -1 -107 -15z"/>
</g>
</svg>
